<svg xmlns="http://www.w3.org/2000/svg" viewBox="0 0 114 114" width="114" height="114">
	<style>
		tspan { white-space:pre }
		.shp0 { fill: #79bc38 } 
	</style>
	<g id="Ebene_2">
		<g id="Ebene_1-2">
			<path id="Layer" fill-rule="evenodd" class="shp0" d="M5.3 79.04C-3.45 57.96 1.37 33.68 17.5 17.54C33.63 1.39 57.9 -3.45 78.99 5.28C100.08 14 113.84 34.58 113.85 57.4C113.85 64.81 112.38 72.14 109.55 78.99C106.71 85.83 102.56 92.05 97.33 97.29C92.09 102.53 85.87 106.69 79.03 109.53C72.19 112.37 64.86 113.84 57.45 113.85C34.63 113.86 14.04 100.12 5.3 79.04ZM57.45 11.85C38.99 11.85 22.35 22.96 15.29 40.01C8.22 57.06 12.12 76.69 25.17 89.74C38.21 102.79 57.84 106.7 74.89 99.64C91.94 92.58 103.07 75.95 103.07 57.49C103.07 51.5 101.89 45.56 99.6 40.02C97.31 34.48 93.95 29.45 89.71 25.21C85.48 20.97 80.45 17.6 74.91 15.3C69.38 13.01 63.44 11.82 57.45 11.81L57.45 11.85Z" />
			<path id="Layer" class="shp0" d="M47.54 79.78L31.39 63.13L39.14 55.62L47.65 64.39L78.47 33.5L86.11 41.13L47.54 79.78L47.54 79.78Z" />
		</g>
	</g>
</svg>