<svg xmlns="http://www.w3.org/2000/svg" viewBox="0 0 60 60" width="60" height="60">
	<style>
		tspan { white-space:pre }
		.shp0 { fill: #d34237 } 
	</style>
	<g id="Ebene_2">
		<g id="Ebene_1-2">
			<path id="Layer" fill-rule="evenodd" class="shp0" d="M3.21 41.16C-1.29 30.29 1.21 17.8 9.53 9.49C17.84 1.19 30.35 -1.29 41.2 3.23C52.06 7.74 59.12 18.35 59.1 30.1C59.09 33.91 58.33 37.68 56.87 41.2C55.41 44.72 53.26 47.91 50.57 50.6C47.87 53.3 44.67 55.43 41.15 56.89C37.63 58.35 33.86 59.1 30.05 59.1C18.3 59.1 7.7 52.02 3.21 41.16ZM8.13 20.97C4.45 29.84 6.48 40.04 13.27 46.83C20.06 53.62 30.26 55.65 39.13 51.97C48 48.3 53.78 39.65 53.78 30.05C53.78 26.93 53.16 23.85 51.97 20.97C50.77 18.1 49.02 15.48 46.82 13.28C44.62 11.08 42 9.33 39.13 8.13C36.25 6.94 33.17 6.32 30.05 6.32C20.45 6.32 11.8 12.1 8.13 20.97Z" />
			<path id="Layer" class="shp0" d="M18.69 22.4L22.45 18.63L41.56 37.75L37.8 41.51L18.69 22.4Z" />
			<path id="Layer" class="shp0" d="M18.59 37.63L37.71 18.51L41.47 22.27L22.36 41.39L18.59 37.63Z" />
		</g>
	</g>
</svg>