<svg id="svg" version="1.1" xmlns="http://www.w3.org/2000/svg" xmlns:xlink="http://www.w3.org/1999/xlink" width="400" height="400" viewBox="0, 0, 400,400"><g id="svgg"><path id="path0" d="M193.833 72.683 C 134.436 76.725,97.502 140.350,123.312 194.167 C 152.395 254.808,237.406 259.191,272.507 201.860 C 308.497 143.075,262.769 67.991,193.833 72.683 M213.167 78.646 C 277.491 89.921,302.291 168.066,256.182 214.182 C 208.383 261.988,126.219 231.635,120.339 164.000 C 115.871 112.608,162.471 69.760,213.167 78.646 M180.000 102.500 L 180.000 105.000 200.000 105.000 L 220.000 105.000 220.000 102.500 L 220.000 100.000 200.000 100.000 L 180.000 100.000 180.000 102.500 M180.000 212.500 L 180.000 215.000 200.000 215.000 L 220.000 215.000 220.000 212.500 L 220.000 210.000 200.000 210.000 L 180.000 210.000 180.000 212.500 M60.000 257.461 C 60.000 257.532,64.449 265.369,69.886 274.878 C 75.324 284.387,79.773 292.317,79.773 292.500 C 79.773 292.683,75.324 300.613,69.886 310.122 C 64.449 319.631,60.000 327.468,60.000 327.539 C 60.000 327.609,123.000 327.667,200.000 327.667 C 277.000 327.667,340.000 327.609,340.000 327.539 C 340.000 327.468,335.551 319.631,330.114 310.122 C 324.676 300.613,320.227 292.683,320.227 292.500 C 320.227 292.317,324.676 284.387,330.114 274.878 C 335.551 265.369,340.000 257.532,340.000 257.461 C 340.000 257.391,277.000 257.333,200.000 257.333 C 123.000 257.333,60.000 257.391,60.000 257.461 M151.114 280.037 C 152.586 280.707,153.055 282.616,152.169 284.330 C 150.575 287.411,146.667 286.813,146.667 283.487 C 146.667 280.840,148.965 279.057,151.114 280.037 M232.222 281.111 C 232.717 281.606,231.569 282.592,230.300 282.762 C 228.443 283.011,228.156 283.376,227.359 286.500 C 226.688 289.131,223.639 304.771,223.103 308.333 C 222.855 309.980,222.744 310.167,222.013 310.167 C 221.039 310.167,221.142 310.337,209.290 289.182 C 208.170 287.181,208.387 286.605,206.524 296.500 C 204.419 307.683,204.421 307.846,206.704 308.211 C 207.887 308.401,208.024 308.518,207.934 309.266 L 207.833 310.108 202.728 310.088 C 199.921 310.077,197.546 309.991,197.451 309.896 C 196.983 309.428,198.088 308.404,199.265 308.216 C 201.658 307.834,201.652 307.849,204.350 294.084 C 206.366 283.795,206.361 283.384,204.228 282.854 C 203.225 282.605,202.990 282.403,203.068 281.854 C 203.162 281.202,203.408 281.162,207.874 281.074 L 212.582 280.982 213.323 282.807 C 214.029 284.548,221.387 297.854,221.960 298.427 C 222.249 298.716,224.187 289.162,224.556 285.632 C 224.799 283.309,224.376 282.667,222.603 282.667 C 221.746 282.667,221.223 281.555,221.805 280.972 C 222.001 280.776,232.021 280.910,232.222 281.111 M131.607 281.736 C 131.526 282.296,131.182 282.539,130.181 282.746 C 128.186 283.158,128.391 282.544,125.845 295.713 C 123.314 308.808,123.189 308.000,127.755 308.000 C 131.440 308.000,132.895 307.281,134.737 304.548 C 135.496 303.422,136.257 302.406,136.429 302.291 C 136.812 302.033,138.064 302.331,137.930 302.648 C 137.877 302.774,137.020 304.518,136.025 306.524 L 134.217 310.171 124.257 310.212 L 114.297 310.254 114.398 309.386 C 114.484 308.658,114.726 308.473,115.896 308.243 C 117.649 307.899,117.449 308.523,119.987 295.513 C 122.486 282.701,122.487 282.667,120.306 282.667 C 119.846 282.667,119.667 282.433,119.667 281.833 L 119.667 281.000 125.690 281.000 L 131.713 281.000 131.607 281.736 M149.984 290.920 C 151.136 291.853,151.117 293.633,149.888 299.833 C 148.492 306.881,148.699 307.701,151.233 305.167 C 152.602 303.798,153.000 303.712,153.000 304.783 C 153.000 306.493,148.070 310.333,145.874 310.333 C 143.137 310.333,142.799 308.264,144.333 300.887 C 145.808 293.795,145.589 292.972,142.917 295.581 C 141.860 296.613,141.585 296.743,141.325 296.331 C 140.864 295.602,140.880 295.563,142.335 293.911 C 145.139 290.725,148.244 289.511,149.984 290.920 M165.312 290.807 C 165.548 291.091,165.762 292.929,165.848 295.391 C 166.171 304.727,166.359 305.433,168.070 303.776 C 171.514 300.442,172.540 295.635,170.218 293.709 C 168.937 292.646,170.728 290.333,172.833 290.333 C 177.162 290.333,177.169 295.494,172.848 301.243 C 169.685 305.451,162.867 311.000,161.966 310.099 C 161.318 309.451,160.647 304.959,160.442 299.904 C 160.204 294.010,160.101 293.775,158.514 295.508 C 157.425 296.696,156.667 296.819,156.667 295.806 C 156.667 293.320,163.917 289.127,165.312 290.807 M193.329 290.917 C 198.191 293.356,193.420 300.625,186.332 301.576 C 185.035 301.750,185.000 301.789,185.000 303.060 C 185.000 306.856,187.532 307.626,190.675 304.786 C 192.020 303.571,192.643 303.590,192.662 304.849 C 192.670 305.405,190.341 307.488,188.192 308.847 C 178.946 314.691,175.795 301.059,184.531 293.007 C 187.314 290.441,190.752 289.625,193.329 290.917 M246.327 291.083 C 253.112 294.550,246.879 309.338,238.257 310.228 C 230.376 311.041,228.832 300.847,235.781 293.887 C 239.354 290.309,242.943 289.354,246.327 291.083 M261.613 290.917 C 261.779 291.237,262.013 293.525,262.133 296.000 C 262.394 301.387,262.671 303.964,263.013 304.175 C 263.790 304.655,266.534 300.206,267.491 296.915 C 268.075 294.904,269.042 293.835,271.337 292.665 C 272.871 291.882,273.000 292.001,273.000 294.192 C 273.000 296.285,273.965 303.988,274.304 304.598 C 274.707 305.325,277.521 302.398,278.524 300.209 C 279.579 297.903,279.529 295.680,278.386 294.074 C 277.105 292.275,278.276 290.326,280.629 290.341 C 287.904 290.386,281.179 304.942,271.753 309.554 C 269.429 310.691,268.823 309.749,268.078 303.833 L 267.833 301.889 266.853 303.304 C 265.080 305.864,258.929 310.743,258.299 310.089 C 257.699 309.466,256.952 304.417,256.770 299.740 C 256.545 294.010,256.454 293.813,254.792 295.475 C 252.503 297.764,252.310 296.044,254.583 293.607 C 257.442 290.544,260.760 289.273,261.613 290.917 M187.584 292.961 C 186.659 294.060,185.221 298.223,185.388 299.318 L 185.500 300.052 186.654 299.271 C 187.288 298.842,188.221 297.893,188.726 297.162 C 190.948 293.948,189.924 290.180,187.584 292.961 M241.500 292.336 C 239.158 293.241,237.000 298.976,237.000 304.294 C 237.000 310.741,240.746 309.408,242.630 302.292 C 244.307 295.954,243.796 291.449,241.500 292.336 " stroke="none" fill="#f4dca4" fill-rule="evenodd"></path><path id="path1" d="M172.861 130.882 C 172.745 131.183,172.879 131.682,173.159 131.991 C 174.188 133.129,173.816 134.000,172.300 134.000 C 170.427 134.000,168.822 134.838,167.922 136.285 L 167.167 137.500 167.167 158.559 C 167.167 182.064,166.995 180.305,169.462 182.146 C 170.912 183.229,229.088 183.229,230.538 182.146 C 233.005 180.305,232.833 182.067,232.833 158.534 L 232.833 137.451 232.000 136.227 C 230.446 133.944,230.945 134.000,212.200 134.000 L 195.333 134.000 195.333 133.276 C 195.333 132.878,195.577 132.284,195.874 131.955 C 197.153 130.542,196.419 130.333,190.167 130.333 C 183.914 130.333,183.180 130.542,184.460 131.955 C 185.749 133.380,185.205 134.000,182.667 134.000 C 180.128 134.000,179.584 133.380,180.874 131.955 C 181.171 131.627,181.326 131.128,181.218 130.846 C 180.915 130.057,173.165 130.090,172.861 130.882 M178.333 133.167 C 178.333 133.917,178.200 134.000,177.000 134.000 C 175.800 134.000,175.667 133.917,175.667 133.167 C 175.667 132.417,175.800 132.333,177.000 132.333 C 178.200 132.333,178.333 132.417,178.333 133.167 M193.333 133.167 C 193.333 133.997,193.322 134.000,190.167 134.000 C 187.011 134.000,187.000 133.997,187.000 133.167 C 187.000 132.336,187.011 132.333,190.167 132.333 C 193.322 132.333,193.333 132.336,193.333 133.167 M229.898 136.804 L 230.833 137.609 230.833 158.462 L 230.833 179.315 230.074 180.074 L 229.315 180.833 200.000 180.833 L 170.685 180.833 169.926 180.074 L 169.167 179.315 169.167 158.462 L 169.167 137.609 170.102 136.804 L 171.037 136.000 200.000 136.000 L 228.963 136.000 229.898 136.804 M219.667 141.177 L 219.667 142.687 223.917 142.593 L 228.167 142.500 228.269 141.083 L 228.372 139.667 224.019 139.667 L 219.667 139.667 219.667 141.177 M200.789 142.280 C 186.995 147.047,185.756 165.425,198.796 171.851 C 212.208 178.461,226.499 163.921,219.837 150.442 C 216.411 143.510,207.847 139.840,200.789 142.280 M209.333 144.045 C 217.627 145.917,222.090 156.276,217.951 164.042 C 212.188 174.854,195.931 173.404,192.334 161.757 C 189.034 151.073,198.193 141.530,209.333 144.045 M171.222 146.556 C 170.669 147.109,171.024 148.000,171.798 148.000 C 172.618 148.000,173.013 147.485,172.756 146.750 C 172.603 146.309,171.597 146.181,171.222 146.556 M174.788 146.832 C 174.672 147.133,174.732 147.532,174.920 147.720 C 175.464 148.264,176.500 147.897,176.500 147.162 C 176.500 146.314,175.091 146.043,174.788 146.832 M178.454 146.832 C 178.339 147.133,178.399 147.532,178.587 147.720 C 179.130 148.264,180.167 147.897,180.167 147.162 C 180.167 146.314,178.757 146.043,178.454 146.832 M182.258 146.732 C 181.978 147.492,182.363 148.000,183.218 148.000 C 183.886 148.000,184.026 147.855,183.940 147.250 C 183.821 146.414,182.523 146.014,182.258 146.732 M186.222 146.556 C 185.669 147.109,186.024 148.000,186.798 148.000 C 187.618 148.000,188.013 147.485,187.756 146.750 C 187.603 146.309,186.597 146.181,186.222 146.556 M189.788 146.832 C 189.672 147.133,189.732 147.532,189.920 147.720 C 190.464 148.264,191.500 147.897,191.500 147.162 C 191.500 146.314,190.091 146.043,189.788 146.832 M201.345 147.051 C 195.723 149.259,192.734 156.775,195.333 162.167 C 200.558 173.005,216.815 169.473,216.815 157.500 C 216.815 149.525,208.811 144.120,201.345 147.051 M219.788 146.832 C 219.672 147.133,219.732 147.532,219.920 147.720 C 220.464 148.264,221.500 147.897,221.500 147.162 C 221.500 146.314,220.091 146.043,219.788 146.832 M223.454 146.832 C 223.339 147.133,223.399 147.532,223.587 147.720 C 224.130 148.264,225.167 147.897,225.167 147.162 C 225.167 146.314,223.757 146.043,223.454 146.832 M227.258 146.732 C 226.978 147.492,227.363 148.000,228.218 148.000 C 228.886 148.000,229.026 147.855,228.940 147.250 C 228.821 146.414,227.523 146.014,227.258 146.732 M209.500 149.119 C 215.170 151.772,216.694 158.846,212.598 163.499 C 206.851 170.028,196.500 166.170,196.500 157.500 C 196.500 150.612,203.308 146.223,209.500 149.119 M184.552 156.276 C 183.415 157.532,184.309 159.333,186.069 159.333 C 187.097 159.333,187.750 158.622,187.750 157.500 C 187.750 155.762,185.720 154.985,184.552 156.276 M171.222 176.556 C 170.669 177.109,171.024 178.000,171.798 178.000 C 172.618 178.000,173.013 177.485,172.756 176.750 C 172.603 176.309,171.597 176.181,171.222 176.556 M174.788 176.832 C 174.672 177.133,174.732 177.532,174.920 177.720 C 175.464 178.264,176.500 177.897,176.500 177.162 C 176.500 176.314,175.091 176.043,174.788 176.832 M178.454 176.832 C 178.339 177.133,178.399 177.532,178.587 177.720 C 179.130 178.264,180.167 177.897,180.167 177.162 C 180.167 176.314,178.757 176.043,178.454 176.832 M182.258 176.732 C 181.978 177.492,182.363 178.000,183.218 178.000 C 183.886 178.000,184.026 177.855,183.940 177.250 C 183.821 176.414,182.523 176.014,182.258 176.732 M186.222 176.556 C 185.669 177.109,186.024 178.000,186.798 178.000 C 187.618 178.000,188.013 177.485,187.756 176.750 C 187.603 176.309,186.597 176.181,186.222 176.556 M189.788 176.832 C 189.672 177.133,189.732 177.532,189.920 177.720 C 190.464 178.264,191.500 177.897,191.500 177.162 C 191.500 176.314,190.091 176.043,189.788 176.832 M193.454 176.832 C 193.339 177.133,193.399 177.532,193.587 177.720 C 194.130 178.264,195.167 177.897,195.167 177.162 C 195.167 176.314,193.757 176.043,193.454 176.832 M197.258 176.732 C 196.978 177.492,197.363 178.000,198.218 178.000 C 198.886 178.000,199.026 177.855,198.940 177.250 C 198.821 176.414,197.523 176.014,197.258 176.732 M201.222 176.556 C 200.669 177.109,201.024 178.000,201.798 178.000 C 202.618 178.000,203.013 177.485,202.756 176.750 C 202.603 176.309,201.597 176.181,201.222 176.556 M204.788 176.832 C 204.672 177.133,204.732 177.532,204.920 177.720 C 205.464 178.264,206.500 177.897,206.500 177.162 C 206.500 176.314,205.091 176.043,204.788 176.832 M208.454 176.832 C 208.339 177.133,208.399 177.532,208.587 177.720 C 209.130 178.264,210.167 177.897,210.167 177.162 C 210.167 176.314,208.757 176.043,208.454 176.832 M212.258 176.732 C 211.978 177.492,212.363 178.000,213.218 178.000 C 213.886 178.000,214.026 177.855,213.940 177.250 C 213.821 176.414,212.523 176.014,212.258 176.732 M216.222 176.556 C 215.669 177.109,216.024 178.000,216.798 178.000 C 217.618 178.000,218.013 177.485,217.756 176.750 C 217.603 176.309,216.597 176.181,216.222 176.556 M219.788 176.832 C 219.672 177.133,219.732 177.532,219.920 177.720 C 220.464 178.264,221.500 177.897,221.500 177.162 C 221.500 176.314,220.091 176.043,219.788 176.832 M223.454 176.832 C 223.339 177.133,223.399 177.532,223.587 177.720 C 224.130 178.264,225.167 177.897,225.167 177.162 C 225.167 176.314,223.757 176.043,223.454 176.832 M227.258 176.732 C 226.978 177.492,227.363 178.000,228.218 178.000 C 228.886 178.000,229.026 177.855,228.940 177.250 C 228.821 176.414,227.523 176.014,227.258 176.732 M147.872 280.886 C 145.805 282.953,146.597 286.172,149.156 286.099 C 152.975 285.991,153.798 280.000,149.994 280.000 C 149.100 280.000,148.512 280.245,147.872 280.886 M119.761 281.567 C 119.520 282.197,119.969 282.667,120.812 282.667 C 122.596 282.667,122.584 282.897,120.194 295.260 C 117.926 306.985,117.525 308.333,116.304 308.333 C 115.341 308.333,114.333 308.936,114.333 309.512 C 114.333 309.930,115.765 310.000,124.266 310.000 L 134.198 310.000 135.938 306.417 C 137.901 302.373,137.911 302.333,137.010 302.333 C 136.582 302.333,135.962 302.946,135.227 304.095 C 133.055 307.490,130.957 308.534,126.888 308.246 C 123.111 307.979,123.191 308.743,125.612 296.084 C 127.903 284.107,128.288 282.890,129.833 282.729 C 130.705 282.639,131.667 281.916,131.667 281.353 C 131.667 280.947,119.918 281.159,119.761 281.567 M203.403 281.804 C 203.465 282.226,203.882 282.559,204.567 282.736 C 206.551 283.247,206.537 283.985,204.333 295.167 C 201.810 307.971,201.804 307.985,198.917 308.512 C 198.055 308.670,197.667 308.916,197.667 309.305 C 197.667 310.100,207.530 310.171,207.834 309.378 C 208.047 308.823,207.464 308.346,206.561 308.338 C 205.362 308.328,204.667 307.681,204.662 306.572 C 204.651 304.188,208.113 287.303,208.523 287.742 C 208.740 287.976,211.063 291.992,213.685 296.667 C 216.306 301.342,219.062 306.254,219.809 307.583 C 220.843 309.424,221.339 310.000,221.890 310.000 C 222.666 310.000,222.675 309.975,223.341 306.000 C 224.327 300.108,226.775 287.888,227.401 285.733 C 228.163 283.109,228.474 282.795,230.505 282.599 C 231.525 282.500,231.856 282.316,231.931 281.805 C 232.041 281.051,222.453 280.750,221.922 281.492 C 221.476 282.114,221.655 282.301,222.917 282.528 C 224.860 282.879,225.066 283.179,224.814 285.305 C 224.550 287.532,222.421 298.690,222.222 298.889 C 221.890 299.221,212.667 282.474,212.666 281.538 C 212.666 281.283,211.198 281.164,207.986 281.157 C 203.518 281.148,203.311 281.178,203.403 281.804 M146.000 291.033 C 144.373 292.004,141.333 295.033,141.333 295.683 C 141.333 296.654,141.652 296.578,143.016 295.280 C 145.816 292.617,146.022 293.423,144.492 301.039 C 142.976 308.586,143.297 310.333,146.199 310.333 C 148.213 310.333,153.300 305.835,152.789 304.505 C 152.613 304.046,152.329 304.193,151.146 305.353 C 148.430 308.020,148.187 307.091,149.694 299.802 C 151.472 291.203,150.315 288.456,146.000 291.033 M161.697 290.908 C 159.852 291.817,157.000 294.849,157.000 295.901 L 157.000 296.802 158.264 295.568 C 159.917 293.954,160.328 293.990,160.353 295.750 C 160.427 300.989,161.265 308.747,161.861 309.711 C 163.014 311.577,172.555 302.743,175.048 297.500 C 177.310 292.743,174.472 288.296,171.026 291.196 C 169.774 292.250,169.755 292.645,170.880 294.344 C 172.494 296.783,171.192 301.278,168.072 304.033 C 166.546 305.381,166.416 305.293,166.162 302.750 C 166.038 301.512,165.888 300.200,165.827 299.833 C 165.766 299.467,165.705 297.479,165.691 295.417 C 165.659 290.433,164.748 289.405,161.697 290.908 M188.568 290.671 C 179.751 293.319,175.892 310.111,184.101 310.111 C 187.038 310.111,193.240 305.800,192.357 304.372 C 192.158 304.050,191.639 304.284,190.296 305.303 C 187.266 307.599,185.101 306.871,184.921 303.496 L 184.833 301.860 186.836 301.311 C 192.365 299.796,195.774 296.618,195.192 293.519 C 194.740 291.110,191.600 289.760,188.568 290.671 M240.000 290.912 C 237.994 291.615,234.137 295.504,232.911 298.059 C 227.928 308.446,236.854 314.671,244.794 306.346 C 252.414 298.357,249.110 287.719,240.000 290.912 M258.003 290.922 C 256.101 291.858,253.014 295.147,253.236 295.999 C 253.414 296.679,253.483 296.656,254.642 295.524 C 256.420 293.788,256.665 293.935,256.679 296.750 C 256.707 302.389,257.836 310.000,258.644 310.000 C 259.831 310.000,265.844 304.729,267.367 302.353 C 267.876 301.560,267.898 301.603,268.309 304.149 C 269.323 310.435,269.685 310.797,272.865 308.706 C 281.621 302.949,286.772 292.082,281.466 290.562 C 279.559 290.016,277.005 291.992,277.947 293.284 C 280.359 296.592,279.781 300.243,276.334 303.467 C 274.782 304.919,274.000 305.340,274.000 304.725 C 274.000 304.574,273.783 302.962,273.519 301.142 C 273.254 299.322,272.937 296.633,272.814 295.167 C 272.546 291.960,272.684 292.140,271.116 292.946 C 269.127 293.969,268.054 295.319,267.481 297.520 C 266.910 299.713,265.814 301.763,264.277 303.513 C 262.921 305.058,262.754 304.987,262.479 302.750 C 262.349 301.696,262.200 300.608,262.147 300.333 C 262.094 300.058,262.040 297.996,262.026 295.750 C 261.992 290.388,261.147 289.374,258.003 290.922 M189.960 292.735 C 190.792 294.983,187.616 300.000,185.362 300.000 C 184.582 300.000,186.049 294.804,187.343 292.987 C 188.208 291.771,189.556 291.642,189.960 292.735 M243.202 292.841 C 244.730 295.173,242.867 304.710,240.370 307.335 C 236.993 310.885,235.616 306.225,237.710 298.333 C 239.072 293.199,241.709 290.562,243.202 292.841 " stroke="none" fill="#bb936b" fill-rule="evenodd"></path><path id="path2" d="M195.750 72.563 C 196.071 72.647,196.596 72.647,196.917 72.563 C 197.237 72.479,196.975 72.411,196.333 72.411 C 195.692 72.411,195.429 72.479,195.750 72.563 M169.157 158.500 C 169.157 169.683,169.199 174.210,169.250 168.559 C 169.301 162.909,169.301 153.759,169.250 148.226 C 169.198 142.693,169.157 147.317,169.157 158.500 M230.823 158.500 C 230.823 169.683,230.865 174.210,230.917 168.559 C 230.968 162.909,230.968 153.759,230.916 148.226 C 230.865 142.693,230.823 147.317,230.823 158.500 M204.921 141.569 C 205.335 141.649,205.935 141.646,206.254 141.562 C 206.573 141.479,206.233 141.414,205.500 141.417 C 204.767 141.421,204.506 141.489,204.921 141.569 M204.917 173.569 C 205.329 173.648,206.004 173.648,206.417 173.569 C 206.829 173.489,206.492 173.424,205.667 173.424 C 204.842 173.424,204.504 173.489,204.917 173.569 M185.583 180.917 C 193.513 180.966,206.488 180.966,214.417 180.917 C 222.346 180.867,215.858 180.826,200.000 180.826 C 184.142 180.826,177.654 180.867,185.583 180.917 M195.750 242.563 C 196.071 242.647,196.596 242.647,196.917 242.563 C 197.237 242.479,196.975 242.411,196.333 242.411 C 195.692 242.411,195.429 242.479,195.750 242.563 M124.096 281.247 C 125.156 281.313,126.806 281.312,127.762 281.245 C 128.718 281.178,127.850 281.124,125.833 281.125 C 123.817 281.125,123.035 281.180,124.096 281.247 M206.917 281.244 C 207.696 281.314,208.971 281.314,209.750 281.244 C 210.529 281.174,209.892 281.116,208.333 281.116 C 206.775 281.116,206.137 281.174,206.917 281.244 M225.909 281.241 C 226.501 281.314,227.551 281.315,228.243 281.243 C 228.934 281.171,228.450 281.111,227.167 281.109 C 225.883 281.108,225.317 281.167,225.909 281.241 M224.083 283.027 C 224.404 283.214,224.687 283.772,224.712 284.267 C 224.753 285.079,224.772 285.092,224.904 284.398 C 225.060 283.586,224.506 282.660,223.876 282.677 C 223.669 282.682,223.762 282.840,224.083 283.027 M142.818 293.417 L 141.500 294.833 142.917 293.516 C 144.234 292.290,144.487 292.000,144.234 292.000 C 144.180 292.000,143.542 292.637,142.818 293.417 M272.658 293.599 L 272.819 295.167 272.932 293.873 C 272.995 293.161,272.922 292.456,272.772 292.305 C 272.621 292.154,272.570 292.737,272.658 293.599 M235.818 293.750 L 234.500 295.167 235.917 293.849 C 237.234 292.624,237.487 292.333,237.234 292.333 C 237.180 292.333,236.542 292.971,235.818 293.750 M144.730 294.206 C 145.040 294.299,145.358 294.742,145.437 295.191 C 145.563 295.906,145.576 295.893,145.541 295.090 C 145.512 294.433,145.311 294.153,144.833 294.105 C 144.352 294.057,144.323 294.085,144.730 294.206 M249.091 296.667 C 249.091 297.492,249.156 297.829,249.235 297.417 C 249.315 297.004,249.315 296.329,249.235 295.917 C 249.156 295.504,249.091 295.842,249.091 296.667 M165.767 297.667 C 165.767 298.675,165.829 299.087,165.905 298.583 C 165.982 298.079,165.982 297.254,165.905 296.750 C 165.829 296.246,165.767 296.658,165.767 297.667 M262.084 298.833 C 262.088 299.567,262.156 299.827,262.236 299.413 C 262.315 298.998,262.312 298.398,262.229 298.079 C 262.146 297.761,262.080 298.100,262.084 298.833 M266.232 300.171 C 265.927 300.810,265.746 301.333,265.830 301.333 C 266.058 301.333,267.070 299.292,266.918 299.140 C 266.845 299.068,266.537 299.531,266.232 300.171 M160.417 301.167 C 160.421 301.900,160.489 302.161,160.569 301.746 C 160.649 301.331,160.646 300.731,160.562 300.413 C 160.479 300.094,160.414 300.433,160.417 301.167 M256.744 301.667 C 256.744 302.308,256.813 302.571,256.896 302.250 C 256.980 301.929,256.980 301.404,256.896 301.083 C 256.813 300.762,256.744 301.025,256.744 301.667 M168.146 303.750 L 167.167 304.833 168.250 303.854 C 169.260 302.942,169.487 302.667,169.229 302.667 C 169.172 302.667,168.684 303.154,168.146 303.750 M236.767 304.333 C 236.767 305.342,236.829 305.754,236.905 305.250 C 236.982 304.746,236.982 303.921,236.905 303.417 C 236.829 302.912,236.767 303.325,236.767 304.333 M264.010 303.490 C 263.584 303.942,263.108 304.234,262.952 304.137 C 262.795 304.040,262.667 304.120,262.667 304.314 C 262.667 304.922,263.174 304.703,264.167 303.667 C 264.694 303.117,265.048 302.667,264.954 302.667 C 264.860 302.667,264.435 303.037,264.010 303.490 M277.158 305.083 L 274.833 307.500 277.250 305.176 C 279.495 303.017,279.819 302.667,279.574 302.667 C 279.524 302.667,278.436 303.754,277.158 305.083 M190.975 304.583 L 190.167 305.500 191.167 304.667 C 191.717 304.208,192.229 303.796,192.306 303.750 C 192.382 303.704,192.296 303.667,192.114 303.667 C 191.932 303.667,191.419 304.079,190.975 304.583 M264.667 305.500 C 263.857 306.325,263.270 307.000,263.361 307.000 C 263.453 307.000,264.190 306.325,265.000 305.500 C 265.810 304.675,266.397 304.000,266.305 304.000 C 266.214 304.000,265.476 304.675,264.667 305.500 M204.744 305.667 C 204.744 306.308,204.813 306.571,204.896 306.250 C 204.980 305.929,204.980 305.404,204.896 305.083 C 204.813 304.762,204.744 305.025,204.744 305.667 M123.744 306.333 C 123.744 306.975,123.813 307.237,123.896 306.917 C 123.980 306.596,123.980 306.071,123.896 305.750 C 123.813 305.429,123.744 305.692,123.744 306.333 M244.484 306.750 L 243.167 308.167 244.583 306.849 C 245.901 305.624,246.153 305.333,245.901 305.333 C 245.847 305.333,245.209 305.971,244.484 306.750 M148.672 305.927 C 148.664 306.536,149.638 306.829,150.106 306.358 C 150.410 306.051,150.359 306.014,149.883 306.195 C 149.500 306.341,149.154 306.254,148.971 305.965 C 148.751 305.617,148.676 305.608,148.672 305.927 M126.576 308.241 C 127.168 308.314,128.218 308.315,128.909 308.243 C 129.601 308.171,129.117 308.111,127.833 308.109 C 126.550 308.108,125.984 308.167,126.576 308.241 M222.667 309.421 C 222.667 309.714,222.329 310.019,221.917 310.098 L 221.167 310.243 221.927 310.288 C 222.660 310.332,223.302 309.524,222.875 309.097 C 222.760 308.982,222.667 309.128,222.667 309.421 M207.667 309.611 C 207.667 309.825,207.329 310.017,206.917 310.039 C 206.299 310.070,206.276 310.106,206.785 310.237 C 207.450 310.408,208.270 309.826,207.894 309.450 C 207.769 309.325,207.667 309.397,207.667 309.611 M201.583 309.908 C 202.179 309.982,203.154 309.982,203.750 309.908 C 204.346 309.834,203.858 309.773,202.667 309.773 C 201.475 309.773,200.987 309.834,201.583 309.908 M115.083 310.239 C 115.587 310.315,116.412 310.315,116.917 310.239 C 117.421 310.162,117.008 310.100,116.000 310.100 C 114.992 310.100,114.579 310.162,115.083 310.239 " stroke="none" fill="#dcbc84" fill-rule="evenodd"></path><path id="path3" d="M254.667 99.500 C 255.289 100.142,255.872 100.667,255.964 100.667 C 256.056 100.667,255.622 100.142,255.000 99.500 C 254.378 98.858,253.794 98.333,253.703 98.333 C 253.611 98.333,254.045 98.858,254.667 99.500 M257.333 102.104 C 257.333 102.162,257.821 102.649,258.417 103.188 L 259.500 104.167 258.521 103.083 C 257.608 102.074,257.333 101.847,257.333 102.104 M114.744 155.667 C 114.744 156.308,114.813 156.571,114.896 156.250 C 114.980 155.929,114.980 155.404,114.896 155.083 C 114.813 154.762,114.744 155.025,114.744 155.667 M279.744 159.000 C 279.744 159.642,279.813 159.904,279.896 159.583 C 279.980 159.262,279.980 158.737,279.896 158.417 C 279.813 158.096,279.744 158.358,279.744 159.000 M120.077 159.333 C 120.077 159.975,120.146 160.237,120.230 159.917 C 120.314 159.596,120.314 159.071,120.230 158.750 C 120.146 158.429,120.077 158.692,120.077 159.333 M256.000 214.167 C 254.634 215.542,253.592 216.667,253.683 216.667 C 253.775 216.667,254.968 215.542,256.333 214.167 C 257.699 212.792,258.742 211.667,258.650 211.667 C 258.558 211.667,257.366 212.792,256.000 214.167 " stroke="none" fill="#ecc8a8" fill-rule="evenodd"></path><path id="path4" d="M254.667 99.500 C 255.289 100.142,255.872 100.667,255.964 100.667 C 256.056 100.667,255.622 100.142,255.000 99.500 C 254.378 98.858,253.794 98.333,253.703 98.333 C 253.611 98.333,254.045 98.858,254.667 99.500 M257.333 102.104 C 257.333 102.162,257.821 102.649,258.417 103.188 L 259.500 104.167 258.521 103.083 C 257.608 102.074,257.333 101.847,257.333 102.104 M114.744 155.667 C 114.744 156.308,114.813 156.571,114.896 156.250 C 114.980 155.929,114.980 155.404,114.896 155.083 C 114.813 154.762,114.744 155.025,114.744 155.667 M279.744 159.000 C 279.744 159.642,279.813 159.904,279.896 159.583 C 279.980 159.262,279.980 158.737,279.896 158.417 C 279.813 158.096,279.744 158.358,279.744 159.000 M120.077 159.333 C 120.077 159.975,120.146 160.237,120.230 159.917 C 120.314 159.596,120.314 159.071,120.230 158.750 C 120.146 158.429,120.077 158.692,120.077 159.333 M256.000 214.167 C 254.634 215.542,253.592 216.667,253.683 216.667 C 253.775 216.667,254.968 215.542,256.333 214.167 C 257.699 212.792,258.742 211.667,258.650 211.667 C 258.558 211.667,257.366 212.792,256.000 214.167 " stroke="none" fill="#ecc8a8" fill-rule="evenodd"></path></g></svg>